<?xml version="1.0" encoding="utf-8"?>
<!-- Generator: Adobe Illustrator 18.0.0, SVG Export Plug-In . SVG Version: 6.00 Build 0)  -->
<!DOCTYPE svg PUBLIC "-//W3C//DTD SVG 1.1//EN" "http://www.w3.org/Graphics/SVG/1.1/DTD/svg11.dtd" [
	<!ENTITY ns_flows "http://ns.adobe.com/Flows/1.0/">
	<!ENTITY ns_extend "http://ns.adobe.com/Extensibility/1.0/">
	<!ENTITY ns_ai "http://ns.adobe.com/AdobeIllustrator/10.0/">
	<!ENTITY ns_graphs "http://ns.adobe.com/Graphs/1.0/">
	<!ENTITY st0 "display:none;">
	<!ENTITY st1 "display:inline;fill:#FFFFFF;">
	<!ENTITY st2 "clip-path:url(#SVGID_2_);fill-rule:evenodd;clip-rule:evenodd;">
	<!ENTITY st3 "font-family:'GTPressuraMonoTrial-Regular';">
	<!ENTITY st4 "font-size:22;">
]>
<svg version="1.1" xmlns:x="&ns_extend;" xmlns:i="&ns_ai;" xmlns:graph="&ns_graphs;"
	 xmlns="http://www.w3.org/2000/svg" xmlns:xlink="http://www.w3.org/1999/xlink" xmlns:a="http://ns.adobe.com/AdobeSVGViewerExtensions/3.0/"
	 x="0px" y="0px" viewBox="0 0 800 800" style="enable-background:new 0 0 800 800;" xml:space="preserve">
<g id="Layer_1" style="&st0;">
</g>
<g id="Layer_3">
</g>
<g id="Layer_4">
	<text transform="matrix(1 0 0 1 315.4019 491.589)" style="&st3; &st4;">MEDIASTOPHELES</text>
	<path d="M371,444c0.2,0.2,0.3,0.5,0.3,0.7v1.7c0,0.6-0.4,1-1,1h-38.7c-0.6,0-1-0.4-1-1v-1.7c0-0.3,0.1-0.5,0.3-0.7
		c0.2-0.2,0.4-0.3,0.7-0.3l0.1,0c0.9,0,8.2-0.2,13.9-5.9c3.9-3.9,4.6-9.7,4.6-16.9c0-0.3,0.1-0.5,0.3-0.7s0.4-0.3,0.7-0.3h2
		c0.3,0,0.5,0.1,0.7,0.3s0.3,0.4,0.3,0.7c0,8.8,3.1,15.3,6.9,19.2c3.5,3.5,8.3,3.6,9,3.6C370.5,443.7,370.8,443.8,371,444z
		 M377.2,354.9c-0.2-0.4-0.7-0.6-1.1-0.5c-2.6,0.6-5.1,1-7.9,1c-4.6,0-8.7-0.9-12.3-1.6c-2.9-0.6-5.4-1.1-7.5-1.1
		c-0.3,0-0.5,0.1-0.7,0.3c-0.2,0.2-0.3,0.5-0.3,0.7l0.1,1c0,0.5,0.5,0.9,1,0.9c6.5,0,12.6,10.6,21,28.8
		c11.9,25.7,29.9,61.1,30.1,61.4c0.2,0.3,0.5,0.5,0.9,0.5h1.1c0.6,0,1-0.4,1-1c0-8,7.7-22.6,7.8-22.8c0.2-0.3,0.2-0.6,0-0.9
		L377.2,354.9z M468.4,444.7c-11.7-0.3-12.6-10.9-12.6-14.1V371c0-10.6,4-15.4,7.8-15.4c0.5,0,1-0.4,1-0.9l0.1-1
		c0-0.3-0.1-0.5-0.3-0.7c-0.2-0.2-0.5-0.3-0.7-0.3c-3.4,0-6.6,0.8-10,1.7c-3.5,0.9-7.1,1.9-11.2,1.9c-2.2,0-4.4-0.3-6.6-0.8
		c-0.3-0.1-0.6,0-0.9,0.2c-0.2,0.2-0.4,0.5-0.4,0.8c0,0.6,1,55.7,1,74.2c0,5.3-1.3,14.1-9.9,14.1c-0.6,0-1,0.4-1,1v0.7
		c0,0.6,0.4,1,1,1h42.8c0.6,0,1-0.4,1-1v-0.7C469.3,445.2,468.9,444.7,468.4,444.7z M371,444c0.2,0.2,0.3,0.5,0.3,0.7v1.7
		c0,0.6-0.4,1-1,1h-38.7c-0.6,0-1-0.4-1-1v-1.7c0-0.3,0.1-0.5,0.3-0.7c0.2-0.2,0.4-0.3,0.7-0.3l0.1,0c0.9,0,8.2-0.2,13.9-5.9
		c3.9-3.9,4.6-9.7,4.6-16.9c0-0.3,0.1-0.5,0.3-0.7s0.4-0.3,0.7-0.3h2c0.3,0,0.5,0.1,0.7,0.3s0.3,0.4,0.3,0.7
		c0,8.8,3.1,15.3,6.9,19.2c3.5,3.5,8.3,3.6,9,3.6C370.5,443.7,370.8,443.8,371,444z M377.2,354.9c-0.2-0.4-0.7-0.6-1.1-0.5
		c-2.6,0.6-5.1,1-7.9,1c-4.6,0-8.7-0.9-12.3-1.6c-2.9-0.6-5.4-1.1-7.5-1.1c-0.3,0-0.5,0.1-0.7,0.3c-0.2,0.2-0.3,0.5-0.3,0.7l0.1,1
		c0,0.5,0.5,0.9,1,0.9c6.5,0,12.6,10.6,21,28.8c11.9,25.7,29.9,61.1,30.1,61.4c0.2,0.3,0.5,0.5,0.9,0.5h1.1c0.6,0,1-0.4,1-1
		c0-8,7.7-22.6,7.8-22.8c0.2-0.3,0.2-0.6,0-0.9L377.2,354.9z M468.4,444.7c-11.7-0.3-12.6-10.9-12.6-14.1V371
		c0-10.6,4-15.4,7.8-15.4c0.5,0,1-0.4,1-0.9l0.1-1c0-0.3-0.1-0.5-0.3-0.7c-0.2-0.2-0.5-0.3-0.7-0.3c-3.4,0-6.6,0.8-10,1.7
		c-3.5,0.9-7.1,1.9-11.2,1.9c-2.2,0-4.4-0.3-6.6-0.8c-0.3-0.1-0.6,0-0.9,0.2c-0.2,0.2-0.4,0.5-0.4,0.8c0,0.6,1,55.7,1,74.2
		c0,5.3-1.3,14.1-9.9,14.1c-0.6,0-1,0.4-1,1v0.7c0,0.6,0.4,1,1,1h42.8c0.6,0,1-0.4,1-1v-0.7C469.3,445.2,468.9,444.7,468.4,444.7z
		 M371,444c0.2,0.2,0.3,0.5,0.3,0.7v1.7c0,0.6-0.4,1-1,1h-38.7c-0.6,0-1-0.4-1-1v-1.7c0-0.3,0.1-0.5,0.3-0.7
		c0.2-0.2,0.4-0.3,0.7-0.3l0.1,0c0.9,0,8.2-0.2,13.9-5.9c3.9-3.9,4.6-9.7,4.6-16.9c0-0.3,0.1-0.5,0.3-0.7s0.4-0.3,0.7-0.3h2
		c0.3,0,0.5,0.1,0.7,0.3s0.3,0.4,0.3,0.7c0,8.8,3.1,15.3,6.9,19.2c3.5,3.5,8.3,3.6,9,3.6C370.5,443.7,370.8,443.8,371,444z
		 M377.2,354.9c-0.2-0.4-0.7-0.6-1.1-0.5c-2.6,0.6-5.1,1-7.9,1c-4.6,0-8.7-0.9-12.3-1.6c-2.9-0.6-5.4-1.1-7.5-1.1
		c-0.3,0-0.5,0.1-0.7,0.3c-0.2,0.2-0.3,0.5-0.3,0.7l0.1,1c0,0.5,0.5,0.9,1,0.9c6.5,0,12.6,10.6,21,28.8
		c11.9,25.7,29.9,61.1,30.1,61.4c0.2,0.3,0.5,0.5,0.9,0.5h1.1c0.6,0,1-0.4,1-1c0-8,7.7-22.6,7.8-22.8c0.2-0.3,0.2-0.6,0-0.9
		L377.2,354.9z M468.4,444.7c-11.7-0.3-12.6-10.9-12.6-14.1V371c0-10.6,4-15.4,7.8-15.4c0.5,0,1-0.4,1-0.9l0.1-1
		c0-0.3-0.1-0.5-0.3-0.7c-0.2-0.2-0.5-0.3-0.7-0.3c-3.4,0-6.6,0.8-10,1.7c-3.5,0.9-7.1,1.9-11.2,1.9c-2.2,0-4.4-0.3-6.6-0.8
		c-0.3-0.1-0.6,0-0.9,0.2c-0.2,0.2-0.4,0.5-0.4,0.8c0,0.6,1,55.7,1,74.2c0,5.3-1.3,14.1-9.9,14.1c-0.6,0-1,0.4-1,1v0.7
		c0,0.6,0.4,1,1,1h42.8c0.6,0,1-0.4,1-1v-0.7C469.3,445.2,468.9,444.7,468.4,444.7z M371,444c0.2,0.2,0.3,0.5,0.3,0.7v1.7
		c0,0.6-0.4,1-1,1h-38.7c-0.6,0-1-0.4-1-1v-1.7c0-0.3,0.1-0.5,0.3-0.7c0.2-0.2,0.4-0.3,0.7-0.3l0.1,0c0.9,0,6.9,1,12.6-4.8
		c3.9-3.9,5.9-10.8,5.8-18c0-0.3,0.1-0.5,0.3-0.7s0.4-0.3,0.7-0.3h2c0.3,0,0.5,0.1,0.7,0.3s0.3,0.4,0.3,0.7c0,8.8,3.1,15.3,6.9,19.2
		c3.5,3.5,8.3,3.6,9,3.6C370.5,443.7,370.8,443.8,371,444z M377.2,354.9c-0.2-0.4-0.7-0.6-1.1-0.5c-2.6,0.6-5.1,1-7.9,1
		c-4.6,0-8.7-0.9-12.3-1.6c-2.9-0.6-5.4-1.1-7.5-1.1c-0.3,0-0.5,0.1-0.7,0.3c-0.2,0.2-0.3,0.5-0.3,0.7l0.1,1c0,0.5,0.5,0.9,1,0.9
		c6.5,0,12.6,10.6,21,28.8c11.9,25.7,29.9,61.1,30.1,61.4c0.2,0.3,0.5,0.5,0.9,0.5h1.1c0.6,0,0.9-0.5,1-1c1.4-7.6,7.7-22.6,7.8-22.8
		c0.2-0.3,0.2-0.6,0-0.9L377.2,354.9z M468.4,444.7c-11.7-0.3-12.6-10.9-12.6-14.1V371c0-10.6,4-15.4,7.8-15.4c0.5,0,1-0.4,1-0.9
		l0.1-1c0-0.3-0.1-0.5-0.3-0.7c-0.2-0.2-0.5-0.3-0.7-0.3c-3.4,0-6.6,0.8-10,1.7c-3.5,0.9-7.1,1.9-11.2,1.9c-2.2,0-4.4-0.3-6.6-0.8
		c-0.3-0.1-0.6,0-0.9,0.2c-0.2,0.2-0.4,0.5-0.4,0.8c0,0.6,1,55.7,1,74.2c0,5.3-1.3,14.1-9.9,14.1c-0.6,0-1,0.4-1,1v0.7
		c0,0.6,0.4,1,1,1h42.8c0.6,0,1-0.4,1-1v-0.7C469.3,445.2,468.9,444.7,468.4,444.7z"/>
</g>
</svg>
