<?xml version="1.0" encoding="UTF-8" standalone="no"?>
<svg width="168px" height="140px" viewBox="0 0 168 140" version="1.1" xmlns="http://www.w3.org/2000/svg" xmlns:xlink="http://www.w3.org/1999/xlink" xmlns:sketch="http://www.bohemiancoding.com/sketch/ns">
    <!-- Generator: Sketch 3.1.1 (8761) - http://www.bohemiancoding.com/sketch -->
    <title>Shape</title>
    <desc>Created with Sketch.</desc>
    <defs></defs>
    <g id="Page-1" stroke="none" stroke-width="1" fill="none" fill-rule="evenodd" sketch:type="MSPage">
        <g id="mediastopheles-logotype-01" sketch:type="MSLayerGroup" transform="translate(1.000000, 1.000000)" fill="#000000">
            <g id="Layer_4" sketch:type="MSShapeGroup">
                <path d="M4.3,129.9 C4.3,130 4.5,130 4.5,129.9 L6.2,123.6 C6.3,123.3 6.4,123.2 6.7,123.2 L8.9,123.2 C9.1,123.2 9.3,123.4 9.3,123.6 L9.3,138.1 C9.3,138.3 9.1,138.5 8.9,138.5 L7.8,138.5 C7.6,138.5 7.4,138.3 7.4,138.1 L7.4,126.6 C7.4,126.5 7.2,126.4 7.2,126.6 L5.5,132.7 C5.4,133 5.3,133.1 5,133.1 L3.9,133.1 C3.7,133.1 3.5,133 3.4,132.7 L1.7,126.6 C1.7,126.5 1.5,126.5 1.5,126.6 L1.5,138.1 C1.5,138.3 1.3,138.5 1.1,138.5 L0,138.5 C-0.2,138.5 -0.4,138.3 -0.4,138.1 L-0.4,123.6 C-0.4,123.4 -0.2,123.2 0,123.2 L2.2,123.2 C2.4,123.2 2.6,123.3 2.7,123.6 L4.3,129.9 L4.3,129.9 Z M14.9,129.5 C14.9,129.6 15,129.7 15.1,129.7 L20.3,129.7 C20.5,129.7 20.7,129.9 20.7,130.1 L20.7,131.3 C20.7,131.5 20.5,131.7 20.3,131.7 L15.1,131.7 C15,131.7 14.9,131.8 14.9,131.9 L14.9,136.2 C14.9,136.3 15,136.4 15.1,136.4 L20.6,136.4 C20.8,136.4 21,136.6 21,136.8 L21,138 C21,138.2 20.8,138.4 20.6,138.4 L13.2,138.4 C13,138.4 12.8,138.2 12.8,138 L12.8,123.5 C12.8,123.3 13,123.1 13.2,123.1 L20.5,123.1 C20.7,123.1 20.9,123.3 20.9,123.5 L20.9,124.7 C20.9,124.9 20.7,125.1 20.5,125.1 L15,125.1 C14.9,125.1 14.8,125.2 14.8,125.3 L14.8,129.5 L14.9,129.5 Z M24.6,138.6 C24.4,138.6 24.2,138.4 24.2,138.2 L24.2,123.7 C24.2,123.5 24.4,123.3 24.6,123.3 L28.8,123.3 C31.4,123.3 33.1,125.4 33.4,127.9 C33.6,129.7 33.6,132.3 33.4,134.1 C33.1,136.6 31.3,138.7 28.8,138.7 L24.6,138.7 L24.6,138.6 Z M28.8,136.5 C30.1,136.5 31.2,135.3 31.3,134 C31.5,132.2 31.5,129.6 31.3,127.8 C31.1,126.5 30.1,125.3 28.8,125.3 L26.5,125.3 C26.4,125.3 26.3,125.4 26.3,125.5 L26.3,136.3 C26.3,136.4 26.4,136.5 26.5,136.5 L28.8,136.5 L28.8,136.5 Z M39.7,125.3 C39.7,125.2 39.6,125.1 39.5,125.1 L37.1,125.1 C36.9,125.1 36.7,124.9 36.7,124.7 L36.7,123.7 C36.7,123.5 36.9,123.3 37.1,123.3 L44.5,123.3 C44.7,123.3 44.9,123.5 44.9,123.7 L44.9,124.7 C44.9,124.9 44.7,125.1 44.5,125.1 L42,125.1 C41.9,125.1 41.8,125.2 41.8,125.3 L41.8,136.4 C41.8,136.5 41.9,136.6 42,136.6 L44.6,136.6 C44.8,136.6 45,136.8 45,137 L45,138.1 C45,138.3 44.8,138.5 44.6,138.5 L36.8,138.5 C36.6,138.5 36.4,138.3 36.4,138.1 L36.4,137 C36.4,136.8 36.6,136.6 36.8,136.6 L39.4,136.6 C39.5,136.6 39.6,136.5 39.6,136.4 L39.6,125.3 L39.7,125.3 Z M49.6,138.3 C49.5,138.5 49.4,138.6 49.2,138.6 L48,138.6 C47.6,138.6 47.5,138.4 47.6,138.2 L51.7,123.6 C51.7,123.4 51.9,123.3 52.1,123.3 L53.6,123.3 C53.8,123.3 54,123.4 54,123.6 L58.1,138.2 C58.1,138.4 58,138.6 57.7,138.6 L56.5,138.6 C56.3,138.6 56.1,138.5 56.1,138.3 L55.1,134.9 C55.1,134.7 54.9,134.6 54.7,134.6 L51,134.6 C50.8,134.6 50.6,134.7 50.6,134.9 L49.6,138.3 L49.6,138.3 Z M51.3,132.3 C51.3,132.5 51.3,132.5 51.5,132.5 L54.2,132.5 C54.3,132.5 54.4,132.4 54.4,132.3 L53,126.2 C53,126.1 53,126.1 52.9,126.1 L52.9,126.1 C52.9,126.1 52.8,126.1 52.8,126.2 L51.3,132.3 L51.3,132.3 Z M64.1,131.3 C62,130.8 60.4,129.5 60.4,127.1 C60.4,124.5 62.7,123 64.9,123 C67.5,123 69.4,124.9 69.4,127.1 L69.4,127.4 C69.4,127.6 69.2,127.8 69,127.8 L67.8,127.8 C67.6,127.8 67.4,127.6 67.4,127.4 L67.4,127.1 C67.4,125.6 66.1,125.1 65,125.1 C63.6,125.1 62.6,125.9 62.6,127.1 C62.6,129 64.5,129.2 65.9,129.6 C68.4,130.2 70,131.6 70,134.2 C70,137 67.6,138.8 65,138.8 C62.2,138.8 60,136.7 60,134.2 L60,133.8 C60,133.6 60.2,133.4 60.4,133.4 L61.6,133.4 C61.8,133.4 62,133.6 62,133.8 L62,134.2 C62,135.6 63.2,136.7 64.8,136.7 C66.5,136.7 67.6,135.6 67.6,134.2 C67.8,132.1 66.3,131.9 64.1,131.3 L64.1,131.3 Z M72.9,125.3 C72.7,125.3 72.5,125.1 72.5,124.9 L72.5,123.7 C72.5,123.5 72.7,123.3 72.9,123.3 L81.3,123.3 C81.5,123.3 81.7,123.5 81.7,123.7 L81.7,124.9 C81.7,125.1 81.5,125.3 81.3,125.3 L78.4,125.3 C78.3,125.3 78.2,125.4 78.2,125.5 L78.2,138.2 C78.2,138.4 78,138.6 77.8,138.6 L76.6,138.6 C76.4,138.6 76.2,138.4 76.2,138.2 L76.2,125.5 C76.2,125.4 76.1,125.3 76,125.3 L72.9,125.3 L72.9,125.3 Z M94.1,127.6 C94.3,129.4 94.3,132.4 94.1,134.2 C93.8,136.6 92.1,138.8 89.1,138.8 C86.5,138.8 84.5,137.1 84.1,134.2 C83.9,132.4 83.9,129.4 84.1,127.6 C84.4,125.2 86.1,123 89.1,123 C91.8,123 93.8,124.7 94.1,127.6 L94.1,127.6 Z M86.3,127.6 C86.1,129.4 86.1,132.4 86.3,134.2 C86.5,135.5 87.4,136.7 89.2,136.7 C90.7,136.7 91.8,135.8 92.1,134.2 C92.4,132.4 92.3,129.4 92.1,127.6 C91.9,126.3 91,125.1 89.2,125.1 C87.7,125.1 86.5,126 86.3,127.6 L86.3,127.6 Z M99.5,138.1 C99.5,138.3 99.3,138.5 99.1,138.5 L97.9,138.5 C97.7,138.5 97.5,138.3 97.5,138.1 L97.5,123.6 C97.5,123.4 97.7,123.2 97.9,123.2 L101.9,123.2 C104.5,123.2 106.5,125.3 106.5,127.8 C106.5,130.4 104.4,132.4 101.9,132.4 L99.8,132.4 C99.7,132.4 99.6,132.5 99.6,132.6 L99.6,138.1 L99.5,138.1 Z M99.7,125.3 C99.6,125.3 99.5,125.4 99.5,125.5 L99.5,130.1 C99.5,130.2 99.6,130.3 99.7,130.3 L101.8,130.3 C103.1,130.3 104.3,129.2 104.3,127.8 C104.3,126.4 103.2,125.3 101.8,125.3 L99.7,125.3 L99.7,125.3 Z M110.7,129.5 C110.7,129.6 110.8,129.7 110.9,129.7 L115.7,129.7 C115.8,129.7 115.9,129.6 115.9,129.5 L115.9,123.7 C115.9,123.5 116.1,123.3 116.3,123.3 L117.5,123.3 C117.7,123.3 117.9,123.5 117.9,123.7 L117.9,138.2 C117.9,138.4 117.7,138.6 117.5,138.6 L116.3,138.6 C116.1,138.6 115.9,138.4 115.9,138.2 L115.9,132 C115.9,131.9 115.8,131.8 115.7,131.8 L110.9,131.8 C110.8,131.8 110.7,131.9 110.7,132 L110.7,138.2 C110.7,138.4 110.5,138.6 110.3,138.6 L109.1,138.6 C108.9,138.6 108.7,138.4 108.7,138.2 L108.7,123.7 C108.7,123.5 108.9,123.3 109.1,123.3 L110.3,123.3 C110.5,123.3 110.7,123.5 110.7,123.7 L110.7,129.5 L110.7,129.5 Z M123.8,129.5 C123.8,129.6 123.9,129.7 124,129.7 L129.2,129.7 C129.4,129.7 129.6,129.9 129.6,130.1 L129.6,131.3 C129.6,131.5 129.4,131.7 129.2,131.7 L124,131.7 C123.9,131.7 123.8,131.8 123.8,131.9 L123.8,136.2 C123.8,136.3 123.9,136.4 124,136.4 L129.5,136.4 C129.7,136.4 129.9,136.6 129.9,136.8 L129.9,138 C129.9,138.2 129.7,138.4 129.5,138.4 L122.1,138.4 C121.9,138.4 121.7,138.2 121.7,138 L121.7,123.5 C121.7,123.3 121.9,123.1 122.1,123.1 L129.4,123.1 C129.6,123.1 129.8,123.3 129.8,123.5 L129.8,124.7 C129.8,124.9 129.6,125.1 129.4,125.1 L123.9,125.1 C123.8,125.1 123.7,125.2 123.7,125.3 L123.7,129.5 L123.8,129.5 Z M136.2,136.3 C136.2,136.4 136.3,136.5 136.4,136.5 L141.8,136.5 C142,136.5 142.2,136.7 142.2,136.9 L142.2,138.1 C142.2,138.3 142,138.5 141.8,138.5 L134.6,138.5 C134.4,138.5 134.2,138.3 134.2,138.1 L134.2,123.6 C134.2,123.4 134.4,123.2 134.6,123.2 L135.8,123.2 C136,123.2 136.2,123.4 136.2,123.6 L136.2,136.3 L136.2,136.3 Z M148,129.5 C148,129.6 148.1,129.7 148.2,129.7 L153.4,129.7 C153.6,129.7 153.8,129.9 153.8,130.1 L153.8,131.3 C153.8,131.5 153.6,131.7 153.4,131.7 L148.2,131.7 C148.1,131.7 148,131.8 148,131.9 L148,136.2 C148,136.3 148.1,136.4 148.2,136.4 L153.7,136.4 C153.9,136.4 154.1,136.6 154.1,136.8 L154.1,138 C154.1,138.2 153.9,138.4 153.7,138.4 L146.3,138.4 C146.1,138.4 145.9,138.2 145.9,138 L145.9,123.5 C145.9,123.3 146.1,123.1 146.3,123.1 L153.6,123.1 C153.8,123.1 154,123.3 154,123.5 L154,124.7 C154,124.9 153.8,125.1 153.6,125.1 L148.1,125.1 C148,125.1 147.9,125.2 147.9,125.3 L147.9,129.5 L148,129.5 Z M160.9,131.3 C158.8,130.8 157.2,129.5 157.2,127.1 C157.2,124.5 159.5,123 161.7,123 C164.3,123 166.2,124.9 166.2,127.1 L166.2,127.4 C166.2,127.6 166,127.8 165.8,127.8 L164.6,127.8 C164.4,127.8 164.2,127.6 164.2,127.4 L164.2,127.1 C164.2,125.6 162.9,125.1 161.8,125.1 C160.4,125.1 159.4,125.9 159.4,127.1 C159.4,129 161.3,129.2 162.7,129.6 C165.2,130.2 166.8,131.6 166.8,134.2 C166.8,137 164.4,138.8 161.8,138.8 C159,138.8 156.8,136.7 156.8,134.2 L156.8,133.8 C156.8,133.6 157,133.4 157.2,133.4 L158.4,133.4 C158.6,133.4 158.8,133.6 158.8,133.8 L158.8,134.2 C158.8,135.6 160,136.7 161.6,136.7 C163.3,136.7 164.4,135.6 164.4,134.2 C164.6,132.1 163.1,131.9 160.9,131.3 L160.9,131.3 Z M54,91 C54.2,91.2 54.3,91.5 54.3,91.7 L54.3,93.4 C54.3,94 53.9,94.4 53.3,94.4 L14.6,94.4 C14,94.4 13.6,94 13.6,93.4 L13.6,91.7 C13.6,91.4 13.7,91.2 13.9,91 C14.1,90.8 14.3,90.7 14.6,90.7 L14.7,90.7 C15.6,90.7 22.9,90.5 28.6,84.8 C32.5,80.9 33.2,75.1 33.2,67.9 C33.2,67.6 33.3,67.4 33.5,67.2 C33.7,67 33.9,66.9 34.2,66.9 L36.2,66.9 C36.5,66.9 36.7,67 36.9,67.2 C37.1,67.4 37.2,67.6 37.2,67.9 C37.2,76.7 40.3,83.2 44.1,87.1 C47.6,90.6 52.4,90.7 53.1,90.7 C53.5,90.7 53.8,90.8 54,91 L54,91 Z M60.2,1.9 C60,1.5 59.5,1.3 59.1,1.4 C56.5,2 54,2.4 51.2,2.4 C46.6,2.4 42.5,1.5 38.9,0.8 C36,0.2 33.5,-0.3 31.4,-0.3 C31.1,-0.3 30.9,-0.2 30.7,-5.68434189e-14 C30.5,0.2 30.4,0.5 30.4,0.7 L30.5,1.7 C30.5,2.2 31,2.6 31.5,2.6 C38,2.6 44.1,13.2 52.5,31.4 C64.4,57.1 82.4,92.5 82.6,92.8 C82.8,93.1 83.1,93.3 83.5,93.3 L84.6,93.3 C85.2,93.3 85.6,92.9 85.6,92.3 C85.6,84.3 93.3,69.7 93.4,69.5 C93.6,69.2 93.6,68.9 93.4,68.6 L60.2,1.9 L60.2,1.9 Z M151.4,91.7 C139.7,91.4 138.8,80.8 138.8,77.6 L138.8,18 C138.8,7.4 142.8,2.6 146.6,2.6 C147.1,2.6 147.6,2.2 147.6,1.7 L147.7,0.7 C147.7,0.4 147.6,0.2 147.4,5.689893e-14 C147.2,-0.2 146.9,-0.3 146.7,-0.3 C143.3,-0.3 140.1,0.5 136.7,1.4 C133.2,2.3 129.6,3.3 125.5,3.3 C123.3,3.3 121.1,3 118.9,2.5 C118.6,2.4 118.3,2.5 118,2.7 C117.8,2.9 117.6,3.2 117.6,3.5 C117.6,4.1 118.6,59.2 118.6,77.7 C118.6,83 117.3,91.8 108.7,91.8 C108.1,91.8 107.7,92.2 107.7,92.8 L107.7,93.5 C107.7,94.1 108.1,94.5 108.7,94.5 L151.5,94.5 C152.1,94.5 152.5,94.1 152.5,93.5 L152.5,92.8 C152.3,92.2 151.9,91.7 151.4,91.7 L151.4,91.7 Z" id="Shape"></path>
            </g>
        </g>
    </g>
</svg>