<?xml version="1.0" encoding="utf-8"?>
<!-- Generator: Adobe Illustrator 18.0.0, SVG Export Plug-In . SVG Version: 6.00 Build 0)  -->
<!DOCTYPE svg PUBLIC "-//W3C//DTD SVG 1.1//EN" "http://www.w3.org/Graphics/SVG/1.1/DTD/svg11.dtd" [
	<!ENTITY ns_flows "http://ns.adobe.com/Flows/1.0/">
	<!ENTITY ns_extend "http://ns.adobe.com/Extensibility/1.0/">
	<!ENTITY ns_ai "http://ns.adobe.com/AdobeIllustrator/10.0/">
	<!ENTITY ns_graphs "http://ns.adobe.com/Graphs/1.0/">
	<!ENTITY st0 "display:none;">
	<!ENTITY st1 "display:inline;fill:#FFFFFF;">
	<!ENTITY st2 "clip-path:url(#SVGID_2_);fill-rule:evenodd;clip-rule:evenodd;">
]>
<svg version="1.1" xmlns:x="&ns_extend;" xmlns:i="&ns_ai;" xmlns:graph="&ns_graphs;"
	 xmlns="http://www.w3.org/2000/svg" xmlns:xlink="http://www.w3.org/1999/xlink" xmlns:a="http://ns.adobe.com/AdobeSVGViewerExtensions/3.0/"
	 x="0px" y="0px" viewBox="0 0 800 800" style="enable-background:new 0 0 800 800;" xml:space="preserve">
<g id="Layer_1" style="&st0;">
</g>
<g id="Layer_3">
	<g>
		<defs>
			<path id="SVGID_1_" d="M541.4,477.6v-151c0-26.8,10.2-38.9,19.7-38.9c1.3,0,2.5-1,2.5-2.4l0.1-2.5c0-0.7-0.2-1.4-0.7-1.9
				c-0.5-0.5-1.1-0.8-1.8-0.8c-8.8,0-16.8,2.1-25.3,4.4c-8.9,2.3-18.1,4.8-28.5,4.8c-5.6,0-11.1-0.7-16.7-2.1
				c-0.8-0.2-1.6,0-2.2,0.5c-0.6,0.5-1,1.2-1,2c0,1.4,2.5,141.1,2.5,188c0,13.3-3.3,35.7-25.2,35.7c-1.4,0-2.5,1.1-2.5,2.5v1.7
				c0,1.4,1.1,2.5,2.5,2.5h108.5c1.4,0,2.5-1.1,2.5-2.5v-1.7c0-1.4-1.1-2.5-2.5-2.5C543.8,512.4,541.4,485.7,541.4,477.6z
				 M339.3,284.5c-6.5,1.6-13.1,2.4-20.1,2.4c-11.6,0-22.1-2.2-31.3-4.1c-7.3-1.5-13.6-2.8-19.2-2.8c-0.7,0-1.4,0.3-1.8,0.8
				c-0.5,0.5-0.7,1.2-0.7,1.9l0.1,2.5c0.1,1.3,1.2,2.4,2.5,2.4c16.5,0,32.1,26.7,53.4,72.9c30.1,65.2,75.8,154.6,76.3,155.5
				c0.4,0.8,1.3,1.4,2.3,1.4h2.7c1.4,0,2.3-1.2,2.5-2.5c3.6-19.3,19.6-57.3,19.8-57.7c0.4-0.7,0.4-1.6,0-2.3l-83.8-169.1
				C341.7,284.8,340.5,284.2,339.3,284.5z M573.5,513.2c-29.8-0.8-32.1-27.5-32.1-35.7v-151c0-26.8,10.2-38.9,19.7-38.9
				c1.3,0,2.5-1,2.5-2.4l0.1-2.5c0-0.7-0.2-1.4-0.7-1.9c-0.5-0.5-1.1-0.8-1.8-0.8c-8.8,0-16.8,2.1-25.3,4.4
				c-8.9,2.3-18.1,4.8-28.5,4.8c-5.6,0-11.1-0.7-16.7-2.1c-0.8-0.2-1.6,0-2.2,0.5c-0.6,0.5-1,1.2-1,2c0,1.4,2.5,141.1,2.5,188
				c0,13.3-3.3,35.7-25.2,35.7c-1.4,0-2.5,1.1-2.5,2.5v1.7c0,1.4,1.1,2.5,2.5,2.5h108.5c1.4,0,2.5-1.1,2.5-2.5v-1.7
				C576,514.4,574.9,513.3,573.5,513.2z M342.2,285.8c-0.5-1.1-1.7-1.6-2.9-1.3c-6.5,1.6-13.1,2.4-20.1,2.4
				c-11.6,0-22.1-2.2-31.3-4.1c-7.3-1.5-13.6-2.8-19.2-2.8c-0.7,0-1.4,0.3-1.8,0.8c-0.5,0.5-0.7,1.2-0.7,1.9l0.1,2.5
				c0.1,1.3,1.2,2.4,2.5,2.4c16.5,0,32.1,26.7,53.4,72.9c30.1,65.2,75.8,154.6,76.3,155.5c0.4,0.8,1.3,1.4,2.3,1.4h2.7
				c1.4,0,2.5-1.1,2.5-2.5c0-20.2,19.6-57.3,19.8-57.7c0.4-0.7,0.4-1.6,0-2.3L342.2,285.8z M339,514.3v3.8c0,1.2-1.3,2.3-2.8,2.3
				H226.8c-1.6,0-2.8-1-2.8-2.3v-3.8c0-0.6,0.3-1.2,0.9-1.6c0.5-0.4,1.3-0.6,2.1-0.6l0.4,0c2.6,0,22.5-0.9,31.4-8.2
				c10.8-8.9,17.6-27,17.4-43.2c0-0.6,0.3-1.2,0.8-1.6c0.5-0.4,1.3-0.7,2-0.7h5.7c0.8,0,1.5,0.2,2,0.7c0.5,0.4,0.8,1,0.8,1.6
				c-0.1,19.8,7.5,34.6,18.4,43.3c9.8,7.8,28,8.2,30,8.2c0.8,0,1.6,0.2,2.2,0.6C338.6,513.1,339,513.7,339,514.3z M342.2,285.8
				c-0.5-1.1-1.7-1.6-2.9-1.3c-6.5,1.6-13.1,2.4-20.1,2.4c-11.6,0-22.1-2.2-31.3-4.1c-7.3-1.5-13.6-2.8-19.2-2.8
				c-0.7,0-1.4,0.3-1.8,0.8c-0.5,0.5-0.7,1.2-0.7,1.9l0.1,2.5c0.1,1.3,1.2,2.4,2.5,2.4c16.5,0,32.1,26.7,53.4,72.9
				c30.1,65.2,75.8,154.6,76.3,155.5c0.4,0.8,1.3,1.4,2.3,1.4h2.7c1.4,0,2.5-1.1,2.5-2.5c0-20.2,19.6-57.3,19.8-57.7
				c0.4-0.7,0.4-1.6,0-2.3L342.2,285.8z M573.5,513.2c-29.8-0.8-32.1-27.5-32.1-35.7v-151c0-26.8,10.2-38.9,19.7-38.9
				c1.3,0,2.5-1,2.5-2.4l0.1-2.5c0-0.7-0.2-1.4-0.7-1.9c-0.5-0.5-1.1-0.8-1.8-0.8c-8.8,0-16.8,2.1-25.3,4.4
				c-8.9,2.3-18.1,4.8-28.5,4.8c-5.6,0-11.1-0.7-16.7-2.1c-0.8-0.2-1.6,0-2.2,0.5c-0.6,0.5-1,1.2-1,2c0,1.4,2.5,141.1,2.5,188
				c0,13.3-3.3,35.7-25.2,35.7c-1.4,0-2.5,1.1-2.5,2.5v1.7c0,1.4,1.1,2.5,2.5,2.5h108.5c1.4,0,2.5-1.1,2.5-2.5v-1.7
				C576,514.4,574.9,513.3,573.5,513.2z"/>
		</defs>
		<clipPath id="SVGID_2_">
			<use xlink:href="#SVGID_1_"  style="overflow:visible;"/>
		</clipPath>
		<rect x="219" y="275" style="&st2;" width="362" height="250.3"/>
	</g>
</g>
<g id="Layer_4">
</g>
</svg>
